PathFileType	4	(X/Y/Z)	C:/Users/opensim2020/Desktop/walking_exp_matlab/subject02_walking06_straight_01.trc																																																																																																																									
DataRate	CameraRate	NumFrames	NumMarkers	Units	OrigDataRate	OrigDataStartFrame	OrigNumFrames																																																																																																																					
100	100	4	41	mm	100	857	205																																																																																																																					
Frame#	Time	LFHD			RFHD			LBHD			RBHD			C7			T10			CLAV			STRN			RBAK			LSHO			LUPA			LELB			LFRM			LWRA			LWRB			LFIN			RSHO			RUPA			RELB			RFRM			RWRA			RWRB			RFIN			LASI			RASI			LPSI			RPSI			LTHI			LKNE			LTIB			LANK			LHEE			LTOE			RTHI			RKNE			RTIB			RANK			RHEE			RTOE			*39			*40		
		X1	Y1	Z1	X2	Y2	Z2	X3	Y3	Z3	X4	Y4	Z4	X5	Y5	Z5	X6	Y6	Z6	X7	Y7	Z7	X8	Y8	Z8	X9	Y9	Z9	X10	Y10	Z10	X11	Y11	Z11	X12	Y12	Z12	X13	Y13	Z13	X14	Y14	Z14	X15	Y15	Z15	X16	Y16	Z16	X17	Y17	Z17	X18	Y18	Z18	X19	Y19	Z19	X20	Y20	Z20	X21	Y21	Z21	X22	Y22	Z22	X23	Y23	Z23	X24	Y24	Z24	X25	Y25	Z25	X26	Y26	Z26	X27	Y27	Z27	X28	Y28	Z28	X29	Y29	Z29	X30	Y30	Z30	X31	Y31	Z31	X32	Y32	Z32	X33	Y33	Z33	X34	Y34	Z34	X35	Y35	Z35	X36	Y36	Z36	X37	Y37	Z37	X38	Y38	Z38	X39	Y39	Z39	X40	Y40	Z40	X41	Y41	Z41
																																																																																																																												
103	1.02	-134.58658	1753.0907	1376.54614	-135.4436	1737.27356	1520.18567	-246.24931	1651.76025	1365.77173	-258.79102	1632.10046	1507.71326	-283.61276	1523.33179	1437.8623	-339.95682	1250.21509	1441.44922	-144.42686	1457.62402	1432.30432	-93.93768	1283.95581	1446.59827	-344.86856	1354.17346	1504.91504	-201.8688	1494.59363	1259.42236	-204.13283	1292.93494	1173.0791	-200.41095	1152.93335	1158.0824	-180.98155	1022.94891	1144.0885	-120.41703	901.2005	1179.16003	-161.63289	901.90936	1140.95947	-136.97166	840.71558	1136.19727	-206.47037	1495.68835	1626.64063	-229.7321	1306.35339	1714.95703	-206.65115	1160.04138	1735.59424	-159.60019	1047.05273	1746.87891	-95.07446	930.34833	1716.04871	-136.16898	918.92474	1754.43005	-89.79016	862.75598	1748.29053	-93.24326	993.9729	1317.57385	-115.62727	971.98712	1572.95239	-310.68951	1032.6665	1380.05835	-324.09583	1026.5448	1494.50085	-132.62364	681.11804	1264.69946	-151.7426	478.15768	1298.87439	-199.75555	287.96777	1302.00964	-190.56108	67.42915	1346.23914	-229.1413	39.95152	1395.7926	-34.0388	33.58418	1342.81787	-164.70831	666.38684	1645.06287	-143.74286	470.12589	1630.72363	-285.26318	356.09756	1613.77319	-412.01846	215.95341	1566.11023	-454.49084	187.12592	1497.62451	-350.18842	76.52097	1617.19165	-251.007	1795.97949	1461.7113	2845.89404	1033.97302	-3357.4978
104	1.03	-125.43649	1753.74756	1376.25684	-126.22298	1737.90833	1519.97107	-237.034	1652.37488	1365.54724	-249.3157	1632.73987	1507.75549	-274.50125	1524.08667	1437.36328	-330.92352	1250.99902	1440.65027	-135.29549	1458.25928	1431.9137	-85.08919	1284.48328	1445.81396	-335.83856	1354.63428	1503.78809	-192.26779	1495.89539	1259.19556	-191.56113	1294.48901	1172.59485	-185.32816	1154.43579	1157.06702	-161.73473	1024.74438	1143.9989	-97.60318	905.55066	1180.30286	-138.59064	904.44391	1141.87976	-111.65916	844.27002	1137.6731	-197.33292	1496.19006	1626.20715	-221.28964	1307.0708	1714.65063	-199.91183	1160.52014	1734.72998	-154.17987	1046.89673	1746.11963	-90.97203	929.25525	1715.59192	-132.4482	918.50452	1754.0531	-87.0667	861.72839	1747.85413	-85.49789	994.71594	1316.52588	-106.01672	973.42596	1571.43762	-302.41177	1033.23059	1380.10376	-315.12418	1027.38672	1494.6283	-128.13448	680.79089	1264.21033	-149.70013	478.09641	1298.54077	-199.01042	288.07489	1302.47412	-191.10127	67.71297	1346.172	-229.2516	40.30581	1396.05896	-33.9514	33.48974	1342.69629	-150.15065	668.41766	1645.08826	-125.81651	472.21851	1629.7854	-264.20535	354.15314	1613.34644	-386.85901	209.75383	1566.16541	-428.70865	179.09766	1498.36633	-319.1048	73.52903	1617.7312	-241.9157	1796.60315	1461.54004	2845.13721	1033.91309	-3360.21265
105	1.04	-116.01458	1754.5791	1376.34863	-116.93879	1738.46753	1519.83411	-227.73445	1652.91089	1365.34863	-239.9805	1633.16162	1507.59058	-265.21548	1524.76807	1436.97766	-321.94949	1251.77209	1439.94519	-126.13892	1458.80151	1431.62976	-76.15099	1284.93921	1445.12292	-326.84827	1355.57324	1503.25305	-182.65092	1496.9668	1258.99731	-178.90637	1295.97253	1172.23938	-170.38048	1155.96985	1156.18359	-142.30896	1026.76245	1144.18811	-74.88598	910.17346	1181.59424	-115.56726	907.14557	1142.90417	-86.33599	848.42487	1138.94543	-188.28008	1496.52466	1625.84485	-213.19748	1307.5354	1714.16101	-193.20137	1160.77185	1733.79248	-148.88628	1046.724	1745.46509	-87.42315	928.10675	1714.96484	-128.74208	918.05743	1753.69519	-84.29214	860.37384	1747.37781	-77.88472	995.28033	1315.37573	-96.32681	974.64087	1569.83472	-294.18234	1033.69031	1380.2948	-306.29745	1028.30408	1494.99695	-123.98112	680.40063	1264.08118	-147.46658	477.96356	1298.35522	-198.4108	288.39465	1302.3927	-191.01184	67.64471	1346.48169	-229.31775	40.3635	1396.21838	-33.92115	33.38489	1342.57349	-135.82861	670.42273	1645.14429	-108.16952	474.26608	1628.98682	-242.96458	351.76761	1613.10742	-360.72583	203.15938	1566.87634	-402.24182	170.44797	1499.21106	-287.25388	70.03614	1617.93127	-232.73128	1797.23291	1461.41296	2845.198	1033.80322	-3360.40869
106	1.05	-106.90958	1754.88916	1376.12036	-107.68471	1738.88855	1519.74426	-218.54874	1653.36682	1365.25439	-230.67668	1633.50671	1507.54614	-256.06357	1525.31592	1436.67456	-313.06287	1252.39905	1439.37695	-117.00536	1459.25171	1431.40564	-67.29214	1285.30249	1444.4325	-317.8349	1356.1344	1502.65991	-173.11703	1498.05371	1258.88562	-166.38301	1297.49255	1171.85046	-155.50264	1157.4259	1155.27393	-123.63611	1029.05212	1144.23438	-52.39942	915.03851	1182.99219	-93.23793	910.23376	1144.08923	-61.24821	852.7135	1140.67212	-179.39511	1496.67395	1625.44348	-205.2972	1307.76184	1713.7218	-186.59459	1160.92456	1733.07166	-143.43474	1046.48535	1745.42358	-83.44883	927.03015	1714.83411	-125.0406	917.50269	1753.46948	-81.48193	858.95001	1747.02234	-70.34757	995.66577	1314.20483	-86.56786	975.6496	1568.22791	-286.04559	1034.1261	1380.69275	-297.37439	1029.15271	1495.54541	-119.91638	680.01947	1264.17615	-144.8418	477.77686	1298.28125	-197.1055	288.69955	1302.39148	-190.96199	67.69303	1346.63733	-229.57025	40.53323	1396.07153	-33.91978	33.31026	1342.43225	-121.9402	672.27148	1645.10242	-90.96219	476.04651	1628.17603	-221.48273	348.91461	1613.28247	-334.09229	195.95862	1567.63086	-374.89694	161.25194	1500.38489	-254.54369	66.49425	1618.14807	-223.44347	1797.83484	1461.74939	2845.37207	1033.83826	-3360.40454
